<?xml version="1.0" encoding="utf-8"?>
<!-- Uploaded to: SVG Repo, www.svgrepo.com, Generator: SVG Repo Mixer Tools -->
<svg fill="#000000" width="800px" height="800px" viewBox="-6 0 32 32" version="1.1" xmlns="http://www.w3.org/2000/svg">
<title>rocket</title>
<path d="M8 26.080c-0.4 0-0.8-0.16-1.080-0.44-0.4-0.4-0.56-0.96-0.4-1.52l0.56-1.92c0.12-0.44 0-0.88-0.32-1.16 0 0 0 0 0 0l-1.68-1.68c-0.32-0.32-0.76-0.44-1.2-0.32l-1.92 0.56c-0.52 0.16-1.12 0-1.52-0.4-0.52-0.52-0.6-1.36-0.16-1.96l2.12-3.12c0.6-0.84 1.56-1.36 2.6-1.36 0.040 0 0.080 0 0.12 0l1.96 0.28c6.84-8.4 12.12-7.040 12.36-7 0.28 0.080 0.52 0.32 0.6 0.6 0.080 0.24 1.4 5.52-7 12.36l0.28 1.96c0 0.040 0 0.080 0 0.12 0 1.040-0.48 2-1.36 2.6l-3.080 2.12c-0.28 0.16-0.56 0.28-0.88 0.28zM7.92 19.8c0.76 0.72 1.040 1.8 0.76 2.84l-0.44 1.6 2.76-1.92c0.4-0.28 0.64-0.72 0.64-1.16l-0.32-2.36c-0.040-0.28 0.080-0.6 0.32-0.76 6.4-5.080 6.92-9 6.88-10.4-0.040 0-0.040 0-0.080 0-1.48 0-5.4 0.68-10.32 6.88-0.2 0.24-0.48 0.36-0.76 0.32l-2.36-0.32c-0.48 0-0.92 0.24-1.16 0.64l-1.92 2.76 1.6-0.44c1-0.28 2.080 0 2.84 0.76l1.56 1.56zM15.76 11.12c0 0.464-0.376 0.84-0.84 0.84s-0.84-0.376-0.84-0.84c0-0.464 0.376-0.84 0.84-0.84s0.84 0.376 0.84 0.84z"></path>
</svg>